<svg width="32" height="32" viewBox="0 0 32 32" fill="none" xmlns="http://www.w3.org/2000/svg">
<path d="M22.6495 5.36012C22.6495 5.00737 22.5093 4.6692 22.2598 4.41977C22.0104 4.17034 21.6722 4.03012 21.3195 4.03012L10.6795 4.03012C10.3267 4.03012 9.98853 4.17034 9.7391 4.41977C9.48968 4.6692 9.34945 5.00737 9.34945 5.36012L9.34945 27.9701L22.6495 27.9701L22.6495 5.36012ZM25.3095 29.3001C25.3095 30.0347 24.714 30.6301 23.9795 30.6301L8.01945 30.6301C7.28492 30.6301 6.68945 30.0347 6.68945 29.3001L6.68945 5.36012C6.68945 4.3019 7.11013 3.28734 7.8584 2.53907C8.60667 1.7908 9.62124 1.37012 10.6795 1.37012L21.3195 1.37012C22.3776 1.37012 23.3923 1.7908 24.1405 2.53907C24.8888 3.28734 25.3095 4.3019 25.3095 5.36012L25.3095 29.3001Z" fill="#12BA09"/>
<path d="M1.33984 26.6599L1.33984 18.6799C1.33984 17.6218 1.76052 16.6071 2.50879 15.8589C3.25707 15.1106 4.27163 14.6899 5.32984 14.6899H7.98984C8.72438 14.6899 9.31984 15.2854 9.31984 16.0199C9.31984 16.7545 8.72438 17.3499 7.98984 17.3499H5.32984C4.9771 17.3499 4.63892 17.4901 4.38949 17.7396C4.14007 17.989 3.99984 18.3272 3.99984 18.6799L3.99984 26.6599L4.00633 26.7911C4.03651 27.0957 4.17119 27.382 4.38949 27.6003C4.63892 27.8498 4.9771 27.9899 5.32984 27.9899H7.98984C8.72438 27.9899 9.31984 28.5854 9.31984 29.3199C9.31984 30.0545 8.72438 30.6499 7.98984 30.6499H5.32984C4.27163 30.6499 3.25707 30.2293 2.50879 29.481C1.76052 28.7327 1.33984 27.7181 1.33984 26.6599Z" fill="#12BA09"/>
<path d="M27.9997 26.6553L27.9997 14.6853C27.9997 14.3326 27.8595 13.9944 27.61 13.745C27.3606 13.4955 27.0224 13.3553 26.6697 13.3553H24.0097C23.2751 13.3553 22.6797 12.7598 22.6797 12.0253C22.6797 11.2908 23.2751 10.6953 24.0097 10.6953L26.6697 10.6953C27.728 10.6953 28.7425 11.116 29.4907 11.8643C30.239 12.6125 30.6597 13.627 30.6597 14.6853L30.6597 26.6553C30.6597 27.7136 30.239 28.7281 29.4907 29.4764C28.7425 30.2246 27.728 30.6453 26.6697 30.6453H24.0097C23.2751 30.6453 22.6797 30.0499 22.6797 29.3153C22.6797 28.5808 23.2751 27.9853 24.0097 27.9853H26.6697C27.0224 27.9853 27.3606 27.8451 27.61 27.5956C27.8595 27.3462 27.9997 27.008 27.9997 26.6553Z" fill="#12BA09"/>
<path d="M18.6598 6.66992C19.3943 6.66992 19.9898 7.26539 19.9898 7.99992C19.9898 8.73445 19.3943 9.32992 18.6598 9.32992L13.3398 9.32992C12.6052 9.32992 12.0098 8.73445 12.0098 7.99992C12.0098 7.26539 12.6052 6.66992 13.3398 6.66992L18.6598 6.66992Z" fill="#12BA09"/>
<path d="M18.6598 12C19.3943 12 19.9898 12.5955 19.9898 13.33C19.9898 14.0646 19.3943 14.66 18.6598 14.66L13.3398 14.66C12.6052 14.66 12.0098 14.0646 12.0098 13.33C12.0098 12.5955 12.6052 12 13.3398 12L18.6598 12Z" fill="#12BA09"/>
<path d="M18.6598 17.3403C19.3943 17.3403 19.9898 17.9358 19.9898 18.6703C19.9898 19.4049 19.3943 20.0003 18.6598 20.0003H13.3398C12.6052 20.0003 12.0098 19.4049 12.0098 18.6703C12.0098 17.9358 12.6052 17.3403 13.3398 17.3403H18.6598Z" fill="#12BA09"/>
<path d="M18.6598 22.6699C19.3943 22.6699 19.9898 23.2654 19.9898 23.9999C19.9898 24.7345 19.3943 25.3299 18.6598 25.3299H13.3398C12.6052 25.3299 12.0098 24.7345 12.0098 23.9999C12.0098 23.2654 12.6052 22.6699 13.3398 22.6699H18.6598Z" fill="#12BA09"/>
</svg>
