<svg width="49" height="48" viewBox="0 0 49 48" fill="none" xmlns="http://www.w3.org/2000/svg">
<path d="M38.6929 16.5457C39.5026 16.5457 40.1809 16.2727 40.7279 15.7267C41.2749 15.1807 41.5484 14.504 41.5484 13.6967C41.5484 12.8897 41.2746 12.2105 40.7269 11.6592C40.1792 11.1082 39.5007 10.8327 38.6914 10.8327C37.8817 10.8327 37.2034 11.1077 36.6564 11.6577C36.1091 12.2077 35.8354 12.8864 35.8354 13.6937C35.8354 14.5007 36.1092 15.1779 36.6569 15.7252C37.2046 16.2722 37.8832 16.5457 38.6929 16.5457ZM38.6909 19.8687C36.9519 19.8687 35.4874 19.2757 34.2974 18.0897C33.1077 16.904 32.5129 15.4372 32.5129 13.6892C32.5129 11.9729 33.1081 10.5139 34.2984 9.31221C35.4891 8.11088 36.9539 7.51021 38.6929 7.51021C40.4096 7.51021 41.8684 8.11088 43.0694 9.31221C44.2707 10.5139 44.8714 11.9729 44.8714 13.6892C44.8714 15.4372 44.2706 16.904 43.0689 18.0897C41.8672 19.2757 40.4079 19.8687 38.6909 19.8687ZM24.3484 14.3187C25.3984 14.3187 26.3012 13.9465 27.0569 13.2022C27.8122 12.4579 28.1899 11.5395 28.1899 10.4472C28.1899 9.39688 27.8147 8.49405 27.0644 7.73872C26.3141 6.98338 25.4031 6.60571 24.3314 6.60571C23.2471 6.60571 22.3336 6.98088 21.5909 7.73121C20.8482 8.48155 20.4769 9.39255 20.4769 10.4642C20.4769 11.5482 20.8491 12.4617 21.5934 13.2047C22.3377 13.9474 23.2561 14.3187 24.3484 14.3187ZM24.3334 17.6417C22.3191 17.6417 20.6189 16.9487 19.2329 15.5627C17.8469 14.1767 17.1539 12.4765 17.1539 10.4622C17.1539 8.47921 17.8469 6.78688 19.2329 5.38521C20.6189 3.98355 22.3191 3.28271 24.3334 3.28271C26.3164 3.28271 28.0087 3.98355 29.4104 5.38521C30.8121 6.78688 31.5129 8.47921 31.5129 10.4622C31.5129 12.4765 30.8121 14.1767 29.4104 15.5627C28.0087 16.9487 26.3164 17.6417 24.3334 17.6417ZM15.4529 26.7417C15.4529 27.878 16.0552 29.2059 17.2599 30.7252C18.4646 32.2449 20.8224 34.5974 24.3334 37.7827C27.8027 34.6194 30.1501 32.2902 31.3754 30.7952C32.6011 29.2999 33.2139 27.9475 33.2139 26.7382C33.2139 25.7182 32.8787 24.8602 32.2084 24.1642C31.5381 23.4679 30.7114 23.1197 29.7284 23.1197C29.1584 23.1197 28.6224 23.2657 28.1204 23.5577C27.6181 23.8497 27.1376 24.1877 26.6789 24.5717L24.2139 26.8037H24.4649L21.9499 24.5717C21.4912 24.1877 21.0141 23.8497 20.5184 23.5577C20.0231 23.2657 19.4911 23.1197 18.9224 23.1197C17.9337 23.1197 17.1084 23.471 16.4464 24.1737C15.7841 24.8767 15.4529 25.7327 15.4529 26.7417ZM12.1299 26.7382C12.1299 24.9265 12.8286 23.3167 14.2259 21.9087C15.6229 20.5007 17.1907 19.7967 18.9294 19.7967C19.9161 19.7967 20.8886 20.0202 21.8469 20.4672C22.8056 20.9139 23.6326 21.5212 24.3279 22.2892C25.0232 21.5212 25.8436 20.9139 26.7889 20.4672C27.7346 20.0202 28.7149 19.7967 29.7299 19.7967C31.4402 19.7967 33.0022 20.5 34.4159 21.9067C35.8299 23.3134 36.5369 24.9239 36.5369 26.7382C36.5369 28.5402 35.8872 30.3165 34.5879 32.0672C33.2886 33.8182 30.6516 36.5144 26.6769 40.1557L24.3334 42.2752L22.0019 40.1557C17.9389 36.4527 15.2779 33.7427 14.0189 32.0257C12.7596 30.3087 12.1299 28.5462 12.1299 26.7382ZM9.97541 16.5457C10.7851 16.5457 11.4634 16.2727 12.0104 15.7267C12.5577 15.1807 12.8314 14.504 12.8314 13.6967C12.8314 12.8897 12.5576 12.2105 12.0099 11.6592C11.4622 11.1082 10.7836 10.8327 9.97391 10.8327C9.16424 10.8327 8.48591 11.1077 7.93891 11.6577C7.39191 12.2077 7.11841 12.8864 7.11841 13.6937C7.11841 14.5007 7.39224 15.1779 7.93991 15.7252C8.48758 16.2722 9.16608 16.5457 9.97541 16.5457ZM24.4834 44.2037V40.8807H41.2139V25.1197H34.2694V21.7967H41.1299C42.0666 21.7967 42.8686 22.1304 43.5359 22.7977C44.2032 23.465 44.5369 24.267 44.5369 25.2037V42.5002C44.5369 42.9809 44.3731 43.3849 44.0454 43.7122C43.7181 44.0399 43.3141 44.2037 42.8334 44.2037H24.4834ZM7.45291 40.8807H24.4834V44.2037H5.83341C5.35274 44.2037 4.94874 44.0399 4.62141 43.7122C4.29374 43.3849 4.12991 42.9809 4.12991 42.5002V25.2037C4.12991 24.267 4.45758 23.465 5.11291 22.7977C5.76791 22.1304 6.57591 21.7967 7.53691 21.7967H14.3474V25.1197H7.45291V40.8807ZM9.97341 19.8687C8.23441 19.8687 6.76991 19.2757 5.57991 18.0897C4.39024 16.904 3.79541 15.4372 3.79541 13.6892C3.79541 11.9729 4.39058 10.5139 5.58091 9.31221C6.77158 8.11088 8.23641 7.51021 9.97541 7.51021C11.6921 7.51021 13.1511 8.11088 14.3524 9.31221C15.5534 10.5139 16.1539 11.9729 16.1539 13.6892C16.1539 15.4372 15.5531 16.904 14.3514 18.0897C13.1497 19.2757 11.6904 19.8687 9.97341 19.8687Z" fill="#1E1E1E"/>
</svg>
