<svg width="32" height="32" viewBox="0 0 32 32" fill="none" xmlns="http://www.w3.org/2000/svg">
<path d="M12.0089 10.6796L12.0089 2.69963C12.0089 1.9653 12.6047 1.36996 13.3389 1.36963C14.0734 1.36963 14.6689 1.9651 14.6689 2.69963L14.6689 10.6796L14.6624 10.929C14.6312 11.4284 14.5055 11.9174 14.2935 12.3707L14.1805 12.5941L6.85257 26.0006C6.74173 26.2031 6.68492 26.4321 6.68891 26.663C6.69297 26.8937 6.75707 27.1192 6.87465 27.3177C6.99238 27.5162 7.15982 27.6813 7.3604 27.7955C7.56097 27.9098 7.78812 27.9696 8.01891 27.9696L23.9802 27.9696L24.1516 27.9579C24.3224 27.9357 24.4881 27.8813 24.6387 27.7955C24.8392 27.6813 25.0067 27.5162 25.1245 27.3177C25.242 27.1192 25.3062 26.8937 25.3102 26.663C25.3133 26.4899 25.2816 26.3182 25.2192 26.1578L25.1466 26.0006L17.8186 12.5941C17.5377 12.0801 17.373 11.5116 17.3367 10.929L17.3289 10.6796V2.69963C17.3289 1.9653 17.9247 1.36996 18.6589 1.36963C19.3934 1.36963 19.9889 1.9651 19.9889 2.69963V10.6796L19.9992 10.8472C20.0201 11.012 20.0724 11.172 20.1526 11.3187L27.4793 24.7239C27.8118 25.3316 27.9808 26.0159 27.9689 26.7085C27.9569 27.4011 27.765 28.0791 27.4117 28.6749C27.0585 29.2705 26.5561 29.7635 25.9545 30.1061C25.4278 30.4061 24.8411 30.5827 24.2386 30.6218L23.9789 30.6296L8.01891 30.6296C7.32651 30.6296 6.64636 30.4489 6.04469 30.1061C5.44293 29.7635 4.94067 29.2705 4.58741 28.6749C4.23413 28.0791 4.04087 27.4011 4.02891 26.7085C4.01697 26.0159 4.18608 25.3316 4.51856 24.7239L11.8466 11.3187L11.9167 11.168C11.9573 11.0649 11.9847 10.9571 11.9985 10.8472L12.0089 10.6796Z" fill="#12BA09"/>
<path d="M23.3767 18.6699L23.5131 18.6764C24.1837 18.7445 24.7067 19.3112 24.7067 19.9999C24.7067 20.6886 24.1837 21.2553 23.5131 21.3234L23.3767 21.3299L8.62199 21.3299C7.88746 21.3299 7.29199 20.7345 7.29199 19.9999C7.29199 19.2654 7.88746 18.6699 8.62199 18.6699L23.3767 18.6699Z" fill="#12BA09"/>
<path d="M20.6546 1.33984C21.3892 1.33984 21.9846 1.93531 21.9846 2.66984C21.9846 3.40438 21.3892 3.99984 20.6546 3.99984L11.3446 3.99984C10.6101 3.99984 10.0146 3.40438 10.0146 2.66984C10.0146 1.93531 10.6101 1.33984 11.3446 1.33984L20.6546 1.33984Z" fill="#12BA09"/>
</svg>
