<svg width="32" height="32" viewBox="0 0 32 32" fill="none" xmlns="http://www.w3.org/2000/svg">
<path d="M27.9701 16.0001C27.9701 9.38927 22.611 4.03012 16.0001 4.03012C9.38927 4.03012 4.03012 9.38927 4.03012 16.0001C4.03012 22.611 9.38927 27.9701 16.0001 27.9701C22.611 27.9701 27.9701 22.611 27.9701 16.0001ZM30.6301 16.0001C30.6301 24.08 24.08 30.6301 16.0001 30.6301C7.92019 30.6301 1.37012 24.08 1.37012 16.0001C1.37012 7.92019 7.92019 1.37012 16.0001 1.37012C24.08 1.37012 30.6301 7.92019 30.6301 16.0001Z" fill="#12BA09"/>
<path d="M19.9849 15.5689C19.8897 11.6016 18.4824 7.7877 16.0001 4.71589C13.428 7.89883 12.0101 11.8786 12.0101 16.0001L12.0153 16.4313C12.1105 20.3983 13.5182 24.2114 16.0001 27.283C18.5718 24.1002 19.9901 20.1213 19.9901 16.0001L19.9849 15.5689ZM22.6436 16.4962C22.5206 21.6106 20.5 26.5039 16.9638 30.2172C16.7128 30.4806 16.3641 30.6301 16.0001 30.6301C15.6361 30.6301 15.2874 30.4806 15.0364 30.2172C11.5002 26.5039 9.4796 21.6106 9.35659 16.4962L9.3501 16.0001C9.3501 10.7069 11.386 5.61628 15.0364 1.78315L15.1351 1.68962C15.3749 1.48431 15.6814 1.37012 16.0001 1.37012C16.3641 1.37012 16.7128 1.51957 16.9638 1.78315C20.6143 5.61628 22.6501 10.7069 22.6501 16.0001L22.6436 16.4962Z" fill="#12BA09"/>
<path d="M29.3001 14.6699C30.0347 14.6699 30.6301 15.2654 30.6301 15.9999C30.6301 16.7345 30.0347 17.3299 29.3001 17.3299L2.70012 17.3299C1.96558 17.3299 1.37012 16.7345 1.37012 15.9999C1.37012 15.2654 1.96558 14.6699 2.70012 14.6699L29.3001 14.6699Z" fill="#12BA09"/>
</svg>
