<svg width="1165" height="91" viewBox="0 0 1165 91" fill="none" xmlns="http://www.w3.org/2000/svg">
<path d="M103.079 0.559814C111.839 0.559814 126 1.27974 133.92 2.47974V24.0803C127.68 22.6403 116.399 20.9602 109.079 20.9602C108.905 20.9606 54.4792 21.0803 54.3594 21.0803C39.8395 21.0804 25.4397 27.68 25.4395 45.4397C25.4395 63.1996 39.8394 69.9201 54.3594 69.9202H106.8C107.64 69.9202 108.6 69.92 109.439 69.8V54.9202H95.5195V37.1604H133.92V86.2405C132.24 86.7205 130.679 87.1998 129.119 87.5598C122.759 89.2398 110.4 90.4396 100.8 90.3196H48.3594C22.1994 90.1995 -0.000976562 74.4796 -0.000976562 45.4397C-0.000789928 16.4 22.1995 0.79987 48.3594 0.559814H103.079ZM246.693 2.00024C266.373 2.12027 278.733 11.7203 278.733 32.0002C278.733 46.76 272.133 55.8799 260.854 59.72L279.213 89.0002H250.293L234.453 61.8801C212.253 62.0001 190.173 62.0002 167.974 62.0002V89.0002H143.493V2.00024H246.693ZM420.742 20.9602H310.942V35.9602H415.222V54.9202H310.942V69.9202H420.742V89.0002H286.462V2.00024H420.742V20.9602ZM564.648 20.9602H454.849V35.9602H559.128V54.9202H454.849V69.9202H564.648V89.0002H430.368V2.00024H564.648V20.9602ZM673.994 65.0002H674.595V2.00024H699.074V89.0002H664.994L599.234 25.8801H598.755V89.0002H574.274V2.00024H608.234L673.994 65.0002ZM733.169 69.9202H842.969V89.0002H708.688V2.00024H733.169V69.9202ZM877.075 89.0002H852.595V2.00024H877.075V89.0002ZM1020.98 20.9602H911.177V35.9602H1015.46V54.9202H911.177V89.0002H886.696V2.00024H1020.98V20.9602ZM1164.88 20.9602H1055.08V35.9602H1159.36V54.9202H1055.08V69.9202H1164.88V89.0002H1030.6V2.00024H1164.88V20.9602ZM167.974 42.9202H242.014C249.813 42.92 253.293 39.56 253.293 32.0002C253.293 24.4404 249.813 20.9603 242.014 20.9602H167.974V42.9202Z" fill="white"/>
</svg>
