<svg width="49" height="48" viewBox="0 0 49 48" fill="none" xmlns="http://www.w3.org/2000/svg">
<path d="M18.4807 42.299C18 42.299 17.596 42.1353 17.2687 41.808C16.9413 41.4806 16.7777 41.0765 16.7777 40.5955V31.889H8.07118C7.59018 31.889 7.18601 31.7253 6.85868 31.398C6.53134 31.0706 6.36768 30.6666 6.36768 30.186V17.764C6.36768 17.2833 6.53134 16.8793 6.85868 16.552C7.18601 16.2246 7.59018 16.061 8.07118 16.061H16.7777V7.40446C16.7777 6.92346 16.9413 6.5173 17.2687 6.18596C17.596 5.85463 18 5.68896 18.4807 5.68896H30.9027C31.3833 5.68896 31.7873 5.85463 32.1147 6.18596C32.442 6.5173 32.6057 6.92346 32.6057 7.40446V16.061H41.2622C41.7432 16.061 42.1493 16.2246 42.4807 16.552C42.812 16.8793 42.9777 17.2833 42.9777 17.764V30.186C42.9777 30.6666 42.812 31.0706 42.4807 31.398C42.1493 31.7253 41.7432 31.889 41.2622 31.889H32.6057V40.5955C32.6057 41.0765 32.442 41.4806 32.1147 41.808C31.7873 42.1353 31.3833 42.299 30.9027 42.299H18.4807ZM20.1842 38.8925H29.1992V28.4825H39.5592V19.4675H29.1992V9.10746H20.1842V19.4675H9.77418V28.4825H20.1842V38.8925Z" fill="#1E1E1E"/>
</svg>
