<svg width="40" height="40" viewBox="0 0 40 40" fill="none" xmlns="http://www.w3.org/2000/svg">
<path d="M35.0299 14.1548C35.0299 12.1617 34.2376 10.2508 32.8282 8.84147C31.4188 7.43214 29.508 6.6398 27.5149 6.6398C26.2126 6.6398 25.1988 6.82349 24.2614 7.2318C23.3132 7.64483 22.3379 8.3333 21.1806 9.49054C20.5284 10.1427 19.4713 10.1427 18.8192 9.49054C17.6619 8.3333 16.6866 7.64483 15.7384 7.2318C14.801 6.82349 13.7872 6.6398 12.4849 6.6398C10.4918 6.6398 8.58087 7.43214 7.17154 8.84147C5.76221 10.2508 4.96988 12.1617 4.96988 14.1548C4.96988 16.8535 6.50547 19.0952 8.56103 21.2294L19.9999 32.6683L30.5206 22.1476L31.4305 21.2279C33.4858 19.0746 35.0299 16.8375 35.0299 14.1548ZM38.3699 14.1548C38.3699 18.7299 35.3514 22.0853 32.8691 24.519L32.8706 24.5205L21.1806 36.2105C20.5284 36.8628 19.4713 36.8628 18.8192 36.2105L7.14872 24.5402L6.18977 23.5845C3.93026 21.2506 1.62988 18.1775 1.62988 14.1548C1.62988 11.2759 2.77271 8.51406 4.80843 6.47835C6.84414 4.44264 9.60595 3.2998 12.4849 3.2998C14.1218 3.2998 15.6135 3.53362 17.0725 4.16906C18.0966 4.61511 19.051 5.23903 19.9999 6.04128C20.9488 5.23903 21.9032 4.61511 22.9272 4.16906C24.3863 3.53362 25.878 3.2998 27.5149 3.2998C30.3938 3.2998 33.1556 4.44264 35.1914 6.47835C37.2271 8.51406 38.3699 11.2759 38.3699 14.1548Z" fill="#12BA09"/>
<path d="M26.6765 12.454C28.2582 12.4541 29.7831 13.0418 30.9559 14.1028L35.9006 18.5452C36.5865 19.1616 36.6423 20.2176 36.0262 20.9034C35.41 21.5893 34.354 21.6466 33.668 21.0307L28.7248 16.5882L28.7183 16.5817C28.1593 16.0746 27.4312 15.7941 26.6765 15.794C25.9247 15.794 25.1977 16.0705 24.6395 16.5736L24.6411 16.5752L21.1837 19.7488L21.169 19.7618C19.065 21.6483 15.8681 21.5878 13.8628 19.5825L13.8644 19.5808C13.3711 19.0898 12.9774 18.5078 12.7098 17.8652C12.4413 17.2204 12.3037 16.5283 12.3037 15.8299C12.3037 15.1314 12.4413 14.4394 12.7098 13.7946C12.9783 13.1499 13.3721 12.5644 13.8677 12.0724L18.8077 7.13416L18.9331 7.02C19.5891 6.4845 20.5575 6.52255 21.169 7.13416C21.7801 7.74548 21.8178 8.71261 21.2833 9.36843L21.169 9.49564L16.221 14.4437C16.0382 14.6252 15.8928 14.8418 15.7938 15.0797C15.6949 15.3175 15.6437 15.5724 15.6437 15.8299C15.6437 16.0874 15.6949 16.3423 15.7938 16.5801C15.868 16.7585 15.968 16.9257 16.0906 17.0743L16.221 17.2161L16.2259 17.2211L16.3678 17.3498C17.1046 17.9561 18.1879 17.9487 18.9398 17.2749L22.3825 14.1159L22.389 14.1093L22.6141 13.9153C23.7549 12.9729 25.1907 12.454 26.6765 12.454Z" fill="#12BA09"/>
<path d="M25.4791 20.4791C26.0905 19.8677 27.0574 19.83 27.7134 20.3649L27.8405 20.4791L31.1805 23.8191L31.2947 23.9463C31.8296 24.6022 31.7919 25.5691 31.1805 26.1805C30.5691 26.792 29.6022 26.8298 28.9462 26.2947L28.8191 26.1805L25.4791 22.8405L25.3649 22.7134C24.83 22.0574 24.8677 21.0905 25.4791 20.4791Z" fill="#12BA09"/>
<path d="M20.4791 25.4791C21.0905 24.8677 22.0574 24.83 22.7134 25.3649L22.8405 25.4791L26.1805 28.8191L26.2947 28.9463C26.8296 29.6022 26.7919 30.5691 26.1805 31.1805C25.5691 31.792 24.6022 31.8298 23.9462 31.2947L23.8191 31.1805L20.4791 27.8405L20.3649 27.7134C19.83 27.0574 19.8677 26.0905 20.4791 25.4791Z" fill="#12BA09"/>
</svg>
