<svg width="40" height="40" viewBox="0 0 40 40" fill="none" xmlns="http://www.w3.org/2000/svg">
<path d="M28.3501 13.3301C28.3501 11.1156 27.4696 8.99236 25.9038 7.42642C24.4357 5.95841 22.478 5.09234 20.4142 4.98992L20.0001 4.98014C17.7855 4.98014 15.6623 5.86049 14.0963 7.42642C12.5304 8.99236 11.6501 11.1156 11.6501 13.3301L11.6631 13.8422C11.7317 15.0607 12.1042 16.4328 13.6658 17.9944C14.8496 19.1783 16.0402 20.6773 16.5377 22.626L16.6274 23.0223L16.6519 23.192C16.733 24.0343 16.1655 24.8179 15.3179 24.9876C14.4698 25.1571 13.6439 24.6519 13.3951 23.8426L13.3527 23.678L13.2401 23.2359C12.9698 22.364 12.4315 21.5624 11.6908 20.7586L11.3043 20.3558C9.06617 18.1177 8.45296 15.9458 8.33452 14.0999L8.31006 13.3301C8.31006 10.2297 9.54093 7.25561 11.7332 5.0633C13.9255 2.87101 16.8997 1.64014 20.0001 1.64014L20.579 1.65482C23.4686 1.79799 26.2115 3.00787 28.2669 5.0633C30.4593 7.25561 31.6901 10.2297 31.6901 13.3301C31.6901 15.8868 30.7146 18.4995 28.6942 20.3543L28.6957 20.3558C27.4701 21.5814 26.8895 22.4674 26.6475 23.678C26.4665 24.5821 25.5865 25.1684 24.6822 24.9876C23.7781 24.8065 23.1918 23.9266 23.3726 23.0223C23.7986 20.8931 24.888 19.4407 26.3344 17.9944L26.398 17.934C27.6734 16.7862 28.3501 15.0883 28.3501 13.3301Z" fill="#12BA09"/>
<path d="M25.0098 28.3301C25.9322 28.3301 26.6798 29.0777 26.6798 30.0001C26.6798 30.9224 25.9322 31.6701 25.0098 31.6701L14.9898 31.6701C14.0675 31.6701 13.3198 30.9224 13.3198 30.0001C13.3198 29.0777 14.0675 28.3301 14.9898 28.3301L25.0098 28.3301Z" fill="#12BA09"/>
<path d="M23.3402 35C24.2626 35 25.0102 35.7477 25.0102 36.67C25.0102 37.5923 24.2626 38.34 23.3402 38.34H16.6602C15.7379 38.34 14.9902 37.5923 14.9902 36.67C14.9902 35.7477 15.7379 35 16.6602 35H23.3402Z" fill="#12BA09"/>
</svg>
