<svg width="24" height="24" viewBox="0 0 24 24" fill="none" xmlns="http://www.w3.org/2000/svg">
<path d="M21.463 6.15624C21.9288 5.85973 22.5472 5.99715 22.8438 6.46288C23.1403 6.92867 23.0029 7.54708 22.5372 7.84374L13.546 13.5703C13.5346 13.5775 13.5234 13.585 13.5118 13.5918C13.1113 13.8244 12.6627 13.9608 12.2022 13.9912L12.005 13.9971C11.4758 13.9971 10.9557 13.8575 10.4981 13.5918C10.4865 13.585 10.4744 13.5776 10.463 13.5703L1.463 7.84374L1.37999 7.78417C0.982041 7.47025 0.878389 6.89971 1.15636 6.46288C1.4344 6.0261 1.99545 5.87783 2.44835 6.10546L2.53722 6.15624L11.5079 11.8652C11.6591 11.9518 11.8307 11.9971 12.005 11.9971L12.1358 11.9892C12.2638 11.9723 12.3873 11.9296 12.5001 11.8652L21.463 6.15624Z" fill="#12BA09"/>
<path d="M21 6C21 5.44772 20.5523 5 20 5L4 5C3.44772 5 3 5.44772 3 6L3 18C3 18.5523 3.44772 19 4 19L20 19C20.5523 19 21 18.5523 21 18L21 6ZM23 18C23 19.6569 21.6569 21 20 21L4 21C2.34315 21 1 19.6569 1 18L1 6C1 4.34315 2.34315 3 4 3L20 3C21.6569 3 23 4.34315 23 6L23 18Z" fill="#12BA09"/>
</svg>
