<svg width="20" height="20" viewBox="0 0 20 20" fill="none" xmlns="http://www.w3.org/2000/svg">
<path d="M17.8544 5.13936C18.241 4.89326 18.7543 5.00732 19.0005 5.39387C19.2466 5.78048 19.1325 6.29376 18.746 6.53998L11.2833 11.293C11.2739 11.299 11.2646 11.3052 11.2549 11.3109C10.9225 11.5039 10.5502 11.6171 10.168 11.6424L10.0043 11.6473C9.56505 11.6473 9.13337 11.5314 8.75356 11.3109C8.74393 11.3052 8.73389 11.2991 8.72443 11.293L1.25441 6.53998L1.18551 6.49054C0.855211 6.22999 0.76918 5.75644 0.999897 5.39387C1.23067 5.03134 1.69634 4.90828 2.07225 5.09721L2.14601 5.13936L9.59169 9.8778C9.71719 9.94968 9.85962 9.98727 10.0043 9.98727L10.1128 9.98072C10.2191 9.96669 10.3216 9.93125 10.4152 9.8778L17.8544 5.13936Z" fill="#8C8D8B"/>
<path d="M17.4701 5.01979C17.4701 4.56139 17.0985 4.18979 16.6401 4.18979L3.36012 4.18979C2.90172 4.18979 2.53012 4.56139 2.53012 5.01979L2.53012 14.9798C2.53012 15.4382 2.90172 15.8098 3.36012 15.8098L16.6401 15.8098C17.0985 15.8098 17.4701 15.4382 17.4701 14.9798L17.4701 5.01979ZM19.1301 14.9798C19.1301 16.355 18.0153 17.4698 16.6401 17.4698L3.36012 17.4698C1.98493 17.4698 0.870117 16.355 0.870117 14.9798L0.870117 5.01979C0.870117 3.6446 1.98493 2.52979 3.36012 2.52979L16.6401 2.52979C18.0153 2.52979 19.1301 3.6446 19.1301 5.01979L19.1301 14.9798Z" fill="#8C8D8B"/>
</svg>
