<svg width="32" height="33" viewBox="0 0 32 33" fill="none" xmlns="http://www.w3.org/2000/svg">
<path d="M26.64 7.62355C26.64 7.2708 26.4998 6.93262 26.2503 6.6832C26.0009 6.43377 25.6627 6.29355 25.31 6.29355L6.68995 6.29355C6.33721 6.29355 5.99903 6.43377 5.7496 6.6832C5.50017 6.93262 5.35995 7.2708 5.35995 7.62355L5.35995 25.6928L8.4096 22.6432L8.50701 22.5549C8.7437 22.3609 9.04127 22.2535 9.34995 22.2535L25.31 22.2535C25.6627 22.2535 26.0009 22.1134 26.2503 21.8639C26.4998 21.6145 26.64 21.2763 26.64 20.9235L26.64 7.62355ZM29.3 20.9235C29.3 21.9818 28.8793 22.9963 28.131 23.7446C27.3828 24.4929 26.3682 24.9135 25.31 24.9135L9.90065 24.9135L4.9703 29.8439C4.58992 30.2242 4.01779 30.3381 3.52081 30.1322C3.02393 29.9263 2.69995 29.4414 2.69995 28.9035L2.69995 7.62355C2.69995 6.56533 3.12063 5.55077 3.8689 4.8025C4.61717 4.05422 5.63174 3.63354 6.68995 3.63354L25.31 3.63354C26.3681 3.63354 27.3828 4.05422 28.131 4.8025C28.8793 5.55077 29.3 6.56533 29.3 7.62355L29.3 20.9235Z" fill="#12BA09"/>
<path d="M12 14.2634V12.9334H10.67C9.93543 12.9334 9.33997 12.338 9.33997 11.6034C9.33997 10.8689 9.93543 10.2734 10.67 10.2734L13.33 10.2734L13.4663 10.2799C14.1369 10.3482 14.66 10.9149 14.66 11.6034V14.2634C14.66 15.3217 14.2393 16.3362 13.491 17.0845C12.7428 17.8328 11.7282 18.2534 10.67 18.2534C9.93543 18.2534 9.33997 17.658 9.33997 16.9234C9.33997 16.1889 9.93543 15.5934 10.67 15.5934C11.0227 15.5934 11.3609 15.4533 11.6103 15.2037C11.8597 14.9544 12 14.6162 12 14.2634Z" fill="#12BA09"/>
<path d="M20 14.2634V12.9334H18.67C17.9354 12.9334 17.34 12.338 17.34 11.6034C17.34 10.8689 17.9354 10.2734 18.67 10.2734L21.33 10.2734L21.4663 10.2799C22.1369 10.3482 22.66 10.9149 22.66 11.6034V14.2634C22.66 15.3217 22.2393 16.3362 21.491 17.0845C20.7428 17.8328 19.7282 18.2534 18.67 18.2534C17.9354 18.2534 17.34 17.658 17.34 16.9234C17.34 16.1889 17.9354 15.5934 18.67 15.5934C19.0227 15.5934 19.3609 15.4533 19.6103 15.2037C19.8598 14.9544 20 14.6162 20 14.2634Z" fill="#12BA09"/>
</svg>
