<svg width="24" height="24" viewBox="0 0 24 24" fill="none" xmlns="http://www.w3.org/2000/svg">
<path d="M7.10973 1.00007C7.83419 0.995291 8.53585 1.25315 9.08532 1.72565C9.56819 2.14092 9.90531 2.69714 10.0501 3.31257L10.0999 3.58015L10.1009 3.58893L10.1498 3.92097C10.2736 4.69104 10.4727 5.44747 10.7455 6.17878L10.8138 6.3819C10.9557 6.86085 10.9761 7.36869 10.8714 7.85944C10.7518 8.42033 10.4739 8.93503 10.0706 9.34284L10.0667 9.34772L9.35094 10.0626C10.5268 11.9075 12.0921 13.4716 13.9369 14.6476L14.6566 13.9288L14.8148 13.7843C15.1942 13.4593 15.6492 13.2327 16.14 13.128C16.6999 13.0086 17.2826 13.0522 17.8187 13.253C18.5507 13.5262 19.3085 13.7268 20.0794 13.8507L20.4105 13.8985L20.4193 13.8995C21.1478 14.0023 21.8137 14.3694 22.2894 14.9308C22.7597 15.4858 23.0104 16.1931 22.9984 16.92L22.9994 19.9161L22.9964 20.0724C22.9789 20.4366 22.8948 20.795 22.7484 21.13C22.581 21.5127 22.3355 21.8564 22.0277 22.1388C21.7199 22.4211 21.3569 22.6368 20.9613 22.7706C20.6151 22.8877 20.2504 22.9397 19.8861 22.9259L19.7298 22.9161C19.7238 22.9156 19.7173 22.9148 19.7113 22.9142C16.4789 22.5629 13.3739 21.4586 10.6458 19.6896C8.10937 18.0761 5.95842 15.9241 4.34606 13.3868C2.57364 10.6482 1.46991 7.53019 1.12536 4.2862L1.1234 4.27058C1.08593 3.85588 1.13605 3.43765 1.26891 3.04304C1.40184 2.64837 1.61511 2.28519 1.89586 1.97761C2.17666 1.67 2.51879 1.42421 2.89977 1.25593C3.28066 1.08772 3.69237 1.00047 4.10876 1.00007L7.10973 1.00007ZM4.00719 3.00593C3.90402 3.01677 3.80267 3.04294 3.70739 3.08503C3.58042 3.14112 3.46699 3.22372 3.3734 3.32624C3.27989 3.42868 3.20874 3.5493 3.16442 3.68073C3.1218 3.80727 3.10472 3.94124 3.11461 4.07429L3.18102 4.62311C3.52856 7.17788 4.39815 9.63375 5.73571 11.838L6.02868 12.3067L6.03356 12.3136L6.31286 12.7394C7.64014 14.7064 9.33308 16.4003 11.3001 17.7276L11.7259 18.006L11.7337 18.0108L12.2005 18.3038C14.5468 19.7295 17.179 20.6246 19.9124 20.9239C20.0503 20.936 20.1896 20.9204 20.3206 20.8761C20.4524 20.8315 20.5736 20.7592 20.6761 20.6651C20.7786 20.5711 20.8606 20.4567 20.9164 20.3292C20.9721 20.2016 20.9999 20.0632 20.9994 19.9239V16.92L21.0003 16.8956C21.0064 16.6504 20.9216 16.4109 20.763 16.2237C20.6064 16.039 20.3881 15.9168 20.1488 15.881C19.1141 15.7445 18.0983 15.4919 17.1205 15.1271L17.1175 15.1261C16.9388 15.059 16.7446 15.0444 16.558 15.0841C16.371 15.124 16.1988 15.2172 16.0628 15.3517L14.7972 16.6173C14.4789 16.9356 13.9864 17.0019 13.5951 16.7794C10.9352 15.2669 8.73254 13.0643 7.22008 10.4044C6.99774 10.0131 7.06492 9.52144 7.38317 9.20319L8.64782 7.93659C8.78224 7.80066 8.87551 7.62941 8.9154 7.44245C8.95527 7.25547 8.94067 7.06087 8.8734 6.8819L8.87243 6.87995C8.50862 5.905 8.25628 4.89198 8.1195 3.86042L8.1029 3.77058C8.05459 3.56567 7.94235 3.38058 7.78161 3.24225C7.62064 3.10382 7.42039 3.02002 7.21032 3.003L7.1195 3.00007L4.11071 3.00007L4.00719 3.00593Z" fill="#12BA09"/>
</svg>
