<svg width="17" height="17" viewBox="0 0 17 17" fill="none" xmlns="http://www.w3.org/2000/svg">
<g clip-path="url(#clip0_76_354)">
<path d="M5.62977 1.57036C6.11516 1.56716 6.58527 1.73992 6.95341 2.0565C7.27694 2.33473 7.50281 2.7074 7.59988 3.11973L7.63324 3.29901L7.63391 3.3049L7.66661 3.52736C7.74955 4.04331 7.88295 4.55011 8.06573 5.04009L8.11149 5.17619C8.20656 5.49708 8.22023 5.83734 8.15015 6.16614C8.06995 6.54193 7.88376 6.88678 7.61361 7.16002L7.611 7.16329L7.13138 7.64222C7.9192 8.87831 8.96795 9.92625 10.204 10.7142L10.6862 10.2326L10.7922 10.1358C11.0464 9.91801 11.3513 9.76619 11.68 9.69604C12.0552 9.61604 12.4457 9.64526 12.8048 9.77979C13.2953 9.96284 13.803 10.0972 14.3195 10.1803L14.5413 10.2123L14.5472 10.2129C15.0353 10.2818 15.4814 10.5278 15.8001 10.9039C16.1152 11.2758 16.2832 11.7497 16.2752 12.2367L16.2758 14.2441L16.2739 14.3488C16.2621 14.5928 16.2058 14.8329 16.1077 15.0574C15.9956 15.3139 15.831 15.5441 15.6248 15.7333C15.4186 15.9224 15.1754 16.0669 14.9103 16.1566C14.6784 16.235 14.434 16.2699 14.1899 16.2606L14.0853 16.2541C14.0812 16.2537 14.0768 16.2532 14.0728 16.2528C11.9071 16.0174 9.82676 15.2775 7.999 14.0923C6.29953 13.0113 4.85839 11.5694 3.77811 9.86944C2.59059 8.03457 1.85109 5.94553 1.62024 3.77207L1.61893 3.7616C1.59382 3.48375 1.6274 3.20354 1.71642 2.93914C1.80548 2.67472 1.94837 2.43139 2.13647 2.22531C2.32461 2.01921 2.55384 1.85453 2.80909 1.74178C3.06429 1.62908 3.34014 1.57063 3.61912 1.57036L5.62977 1.57036ZM3.55107 2.91428C3.48194 2.92155 3.41404 2.93908 3.3502 2.96728C3.26513 3.00486 3.18913 3.06021 3.12643 3.12889C3.06378 3.19753 3.0161 3.27834 2.98641 3.3664C2.95785 3.45118 2.94641 3.54094 2.95304 3.63008L2.99753 3.9978C3.23038 5.70949 3.81301 7.35493 4.70917 8.83174L4.90546 9.14584L4.90873 9.15039L5.09586 9.43568C5.98514 10.7536 7.11941 11.8885 8.43738 12.7778L8.72266 12.9643L8.72789 12.9676L9.04064 13.1638C10.6127 14.119 12.3762 14.7188 14.2076 14.9193C14.2999 14.9274 14.3933 14.9169 14.4811 14.8873C14.5694 14.8574 14.6506 14.8089 14.7192 14.746C14.7879 14.6829 14.8428 14.6063 14.8802 14.5208C14.9176 14.4354 14.9362 14.3426 14.9358 14.2493V12.2367L14.9365 12.2203C14.9406 12.056 14.8837 11.8956 14.7775 11.7702C14.6725 11.6464 14.5263 11.5646 14.3659 11.5406C13.6727 11.4491 12.9921 11.2799 12.337 11.0354L12.335 11.0348C12.2153 10.9898 12.0852 10.98 11.9601 11.0066C11.8348 11.0334 11.7194 11.0958 11.6284 11.1859L10.7804 12.0339C10.5671 12.2471 10.2371 12.2916 9.97496 12.1425C8.19283 11.1291 6.71705 9.65336 5.7037 7.87123C5.55473 7.60906 5.59975 7.27967 5.81297 7.06645L6.66029 6.21783C6.75035 6.12675 6.81284 6.01202 6.83957 5.88676C6.86628 5.76147 6.8565 5.63109 6.81143 5.51119L6.81078 5.50988C6.56702 4.85666 6.39796 4.17794 6.30631 3.48679L6.29519 3.4266C6.26282 3.28931 6.18762 3.1653 6.07993 3.07262C5.97208 2.97987 5.83791 2.92373 5.69716 2.91232L5.63631 2.91035L3.62042 2.91035L3.55107 2.91428Z" fill="#393939"/>
<path d="M10.3262 1.58767L10.6095 1.62366C12.0195 1.83325 13.329 2.48728 14.3443 3.49495C15.3595 4.50257 16.0234 5.80696 16.2437 7.21528L16.2823 7.49859L16.2862 7.56664C16.2901 7.90626 16.0362 8.20026 15.6915 8.23925C15.3467 8.27818 15.0332 8.04837 14.9613 7.71645L14.9502 7.64905L14.92 7.42269C14.7439 6.2959 14.2124 5.25248 13.4001 4.44629C12.5879 3.64016 11.5406 3.11629 10.4126 2.94861L10.1862 2.91982L10.1181 2.90935C9.78587 2.83979 9.55385 2.52863 9.59017 2.18374C9.62648 1.83866 9.91847 1.58234 10.2582 1.58375L10.3262 1.58767Z" fill="#393939"/>
<path d="M10.3212 4.25632L10.3892 4.26613L10.5371 4.29819C11.2703 4.47164 11.941 4.84814 12.4719 5.38564C13.0028 5.92335 13.3709 6.5992 13.5351 7.33479L13.5652 7.48266L13.5743 7.55005C13.602 7.88866 13.3686 8.19974 13.0274 8.26258C12.6861 8.32536 12.358 8.11766 12.2631 7.79151L12.2474 7.72477L12.2036 7.52911C12.0847 7.0766 11.8489 6.66174 11.5185 6.32717C11.1882 5.9927 10.7766 5.7517 10.3257 5.62707L10.1301 5.58127L10.0633 5.56426C9.73866 5.46519 9.53505 5.13441 9.60212 4.79415C9.66919 4.45389 9.98315 4.22475 10.3212 4.25632Z" fill="#393939"/>
</g>
<defs>
<clipPath id="clip0_76_354">
<rect width="16" height="16" fill="white" transform="translate(0.90625 0.933594)"/>
</clipPath>
</defs>
</svg>
