<svg width="48" height="48" viewBox="0 0 48 48" fill="none" xmlns="http://www.w3.org/2000/svg">
<path d="M34.2959 41.869L36.8714 39.252L32.3294 34.7215L29.7209 37.2905C29.0729 37.9405 28.7573 38.7036 28.7739 39.58C28.7906 40.456 29.1073 41.219 29.7239 41.869C30.3663 42.478 31.1278 42.7908 32.0084 42.8075C32.8891 42.8241 33.6516 42.5113 34.2959 41.869ZM39.0889 37.035L41.6974 34.466C42.3454 33.816 42.6611 33.053 42.6444 32.177C42.6278 31.3006 42.2943 30.5375 41.6439 29.8875C41.0019 29.2451 40.2526 28.924 39.3959 28.924C38.5393 28.924 37.7814 29.2451 37.1224 29.8875L34.5584 32.5045L39.0889 37.035ZM36.6204 44.1955C35.3411 45.4768 33.8024 46.1175 32.0044 46.1175C30.2064 46.1175 28.6669 45.4768 27.3859 44.1955C26.1126 42.9225 25.4759 41.3855 25.4759 39.5845C25.4759 37.7835 26.1126 36.2423 27.3859 34.961L34.7979 27.561C36.0773 26.2796 37.6159 25.639 39.4139 25.639C41.2119 25.639 42.7514 26.2796 44.0324 27.561C45.3058 28.834 45.9424 30.3718 45.9424 32.1745C45.9424 33.9771 45.3058 35.5135 44.0324 36.7835L36.6204 44.1955ZM9.10743 42.299C8.17076 42.299 7.36876 41.9655 6.70143 41.2985C6.03443 40.6311 5.70093 39.8291 5.70093 38.8925V9.10746C5.70093 8.16746 6.03443 7.3628 6.70143 6.69346C7.36876 6.0238 8.17076 5.68896 9.10743 5.68896H19.0584C19.2731 4.5223 19.8424 3.56396 20.7664 2.81396C21.6901 2.06396 22.7679 1.68896 23.9999 1.68896C25.2319 1.68896 26.3098 2.06396 27.2334 2.81396C28.1574 3.56396 28.7268 4.5223 28.9414 5.68896H38.8924C39.8324 5.68896 40.6371 6.0238 41.3064 6.69346C41.9761 7.3628 42.3109 8.16746 42.3109 9.10746V23.14C41.7469 22.927 41.1811 22.782 40.6134 22.705C40.0458 22.6276 39.4721 22.6143 38.8924 22.665V9.10746H9.10743V38.8925H22.4759C22.4346 39.4641 22.4489 40.0338 22.5189 40.6015C22.5889 41.1695 22.7144 41.7353 22.8954 42.299H9.10743ZM23.9999 8.22146C24.4943 8.22146 24.9214 8.04146 25.2814 7.68146C25.6414 7.32146 25.8214 6.8943 25.8214 6.39996C25.8214 5.90563 25.6414 5.47846 25.2814 5.11846C24.9214 4.75846 24.4943 4.57846 23.9999 4.57846C23.5056 4.57846 23.0784 4.75846 22.7184 5.11846C22.3584 5.47846 22.1784 5.90563 22.1784 6.39996C22.1784 6.8943 22.3584 7.32146 22.7184 7.68146C23.0784 8.04146 23.5056 8.22146 23.9999 8.22146ZM14.1074 17.1075V14.1075H33.8924V17.1075H14.1074ZM14.1074 25.5V22.5H33.5934V24.639C33.4778 24.7193 33.3516 24.8161 33.2149 24.9295C33.0783 25.0425 32.9519 25.153 32.8359 25.261L32.6084 25.5H14.1074ZM14.1074 33.8925V30.8925H27.2164L25.2479 32.861C25.0653 33.0436 24.9076 33.2155 24.7749 33.3765C24.6423 33.5378 24.5053 33.7098 24.3639 33.8925H14.1074Z" fill="#1E1E1E"/>
</svg>
