<svg width="32" height="33" viewBox="0 0 32 33" fill="none" xmlns="http://www.w3.org/2000/svg">
<path d="M24.0412 22.656L29.7518 28.3653L27.8652 30.252L22.1558 24.5413C20.0315 26.2443 17.3892 27.1705 14.6665 27.1667C8.0425 27.1667 2.6665 21.7907 2.6665 15.1667C2.6665 8.54267 8.0425 3.16667 14.6665 3.16667C21.2905 3.16667 26.6665 8.54267 26.6665 15.1667C26.6704 17.8893 25.7441 20.5317 24.0412 22.656ZM21.3665 21.6667C23.0583 19.9263 24.0032 17.5938 23.9998 15.1667C23.9998 10.0107 19.8225 5.83333 14.6665 5.83333C9.5105 5.83333 5.33317 10.0107 5.33317 15.1667C5.33317 20.3227 9.5105 24.5 14.6665 24.5C17.0937 24.5034 19.4261 23.5585 21.1665 21.8667L21.3665 21.6667Z" fill="#565656"/>
</svg>
