<svg width="16" height="16" viewBox="0 0 16 16" fill="none" xmlns="http://www.w3.org/2000/svg">
<g clip-path="url(#clip0_82_79)">
<path d="M3.98999 14C3.98999 13.2599 4.58993 12.66 5.32999 12.66C6.07005 12.66 6.66999 13.2599 6.66999 14C6.66999 14.7401 6.07005 15.34 5.32999 15.34C4.58993 15.34 3.98999 14.7401 3.98999 14Z" fill="#1E1E1E" fill-opacity="0.6"/>
<path d="M11.3298 14C11.3298 13.2599 11.9298 12.66 12.6698 12.66C13.4099 12.66 14.0098 13.2599 14.0098 14C14.0098 14.7401 13.4099 15.34 12.6698 15.34C11.9298 15.34 11.3298 14.7401 11.3298 14Z" fill="#1E1E1E" fill-opacity="0.6"/>
<path d="M2.6765 0.669983L2.73539 0.672596C3.02589 0.698056 3.26944 0.910386 3.33146 1.19996L3.93537 4.01998L14.7633 4.01998C14.9665 4.01999 15.1589 4.11208 15.2861 4.27058C15.4133 4.42906 15.4616 4.63688 15.4176 4.83523L14.3119 9.81314L14.3112 9.81247C14.2128 10.259 13.9659 10.659 13.6098 10.9457C13.298 11.1968 12.9193 11.3477 12.523 11.3821L12.3522 11.39L5.79881 11.39C5.33657 11.3969 4.88593 11.2443 4.52293 10.9575C4.2019 10.7038 3.96708 10.3593 3.8477 9.97079L3.80386 9.80202L2.74259 4.84897C2.73918 4.83495 2.73595 4.82081 2.73343 4.80645L2.13475 2.00998L1.3365 2.00998C0.966476 2.00998 0.666504 1.71001 0.666504 1.33998C0.666504 0.969949 0.966476 0.669983 1.3365 0.669983L2.6765 0.669983ZM5.11376 9.52062L5.12815 9.5769C5.16793 9.70655 5.2468 9.82145 5.35389 9.90601C5.47613 10.0026 5.62805 10.0534 5.78376 10.05L12.3503 10.05C12.5026 10.0497 12.6503 9.99759 12.769 9.90212C12.8878 9.80651 12.9705 9.67285 13.0033 9.52391L13.004 9.52263L13.9278 5.35998L4.22261 5.35998L5.11376 9.52062Z" fill="#1E1E1E" fill-opacity="0.6"/>
</g>
<defs>
<clipPath id="clip0_82_79">
<rect width="16" height="16" fill="white"/>
</clipPath>
</defs>
</svg>
