<svg width="32" height="32" viewBox="0 0 32 32" fill="none" xmlns="http://www.w3.org/2000/svg">
<path d="M22.6495 25.3398C23.3841 25.3398 23.9795 25.9353 23.9795 26.6698C23.9795 27.4044 23.3841 27.9998 22.6495 27.9998L9.34953 27.9998C8.615 27.9998 8.01953 27.4044 8.01953 26.6698C8.01953 25.9353 8.615 25.3398 9.34953 25.3398L22.6495 25.3398Z" fill="#12BA09"/>
<path d="M16.1898 12.6563C16.5728 12.0296 17.3917 11.8318 18.0186 12.2147C18.6453 12.5977 18.843 13.4168 18.4601 14.0435C17.9115 14.9412 17.772 15.872 17.8237 16.9139C17.8502 17.4452 17.9255 17.9911 18.0186 18.5764C18.1081 19.1391 18.2219 19.7775 18.2965 20.3869C18.4468 21.6166 18.4874 23.0372 17.8341 24.4134C17.2102 25.727 16.0511 26.8043 14.2532 27.6864L13.8857 27.8605C13.2171 28.1644 12.4285 27.869 12.1245 27.2007C11.8206 26.5321 12.1158 25.7435 12.7843 25.4395L13.3584 25.1575C14.5985 24.5008 15.1588 23.8455 15.4313 23.2717C15.7545 22.5906 15.7881 21.7913 15.6559 20.7104C15.5892 20.1644 15.4925 19.624 15.3923 18.9947C15.2958 18.3877 15.2015 17.7265 15.1676 17.0464C15.0989 15.6654 15.2756 14.1523 16.1898 12.6563Z" fill="#12BA09"/>
<path d="M5.10906 10.1684C9.09947 9.45581 11.6176 10.1409 13.4398 11.4659C15.2539 12.7853 16.2945 14.9881 16.979 17.0418L17.0167 17.1794C17.087 17.5021 17.0348 17.8417 16.8673 18.1303C16.6759 18.4601 16.3517 18.6918 15.9777 18.7667C13.2406 19.314 10.874 19.3867 8.73799 18.251V18.2536C6.84455 17.3069 5.27906 15.4099 4.26611 12.4673L4.06999 11.8646C3.95943 11.501 4.01053 11.1069 4.20898 10.7827C4.40751 10.4588 4.73501 10.2352 5.10906 10.1684ZM11.8759 13.6168C10.9555 12.9473 9.59404 12.3898 7.16251 12.5803C7.9084 14.2794 8.82752 15.2446 9.70691 15.7546L9.92771 15.8742L9.96278 15.8923C10.9859 16.4433 12.1906 16.6061 13.8878 16.4092C13.3412 15.1767 12.6868 14.2065 11.8759 13.6168Z" fill="#12BA09"/>
<path d="M25.4088 4.01252C25.73 4.03395 26.0343 4.17171 26.2634 4.40217C26.4925 4.6327 26.6284 4.93815 26.6479 5.2594L26.6491 5.39708C26.5144 8.49618 25.7267 10.5141 24.2944 12.0886L23.9995 12.3978L23.8905 12.4965C22.3865 13.6996 20.3987 14.4125 17.9133 14.6148L17.4106 14.6486C17.0537 14.6673 16.7037 14.541 16.4403 14.2992C16.2104 14.0879 16.0633 13.8034 16.0222 13.4966L16.0105 13.3628C15.9408 11.2138 16.5245 9.09405 17.6833 7.28298L17.8146 7.11022L18.0807 6.82449C18.7239 6.16107 19.5246 5.51977 20.6006 5.01652C21.8231 4.44465 23.3346 4.08294 25.2711 4.01123L25.4088 4.01252ZM23.8463 6.81151C22.9682 6.94884 22.2808 7.16729 21.7279 7.42585C20.9371 7.79576 20.3616 8.27278 19.868 8.80651C19.2922 9.73302 18.9155 10.7632 18.7549 11.8328C20.258 11.5837 21.3604 11.0932 22.1696 10.4638C22.9749 9.64048 23.574 8.59719 23.8463 6.81151Z" fill="#12BA09"/>
</svg>
