<svg width="32" height="32" viewBox="0 0 32 32" fill="none" xmlns="http://www.w3.org/2000/svg">
<path d="M19.9799 27.9902L19.9799 25.3302C19.9799 24.272 19.5592 23.2574 18.8109 22.5091C18.1563 21.8545 17.2979 21.4504 16.3847 21.3596L15.9899 21.3402L8.00986 21.3402C6.95165 21.3402 5.93709 21.7609 5.18881 22.5091C4.44054 23.2574 4.01986 24.272 4.01986 25.3302V27.9902C4.01986 28.7247 3.4244 29.3202 2.68986 29.3202C1.95533 29.3202 1.35986 28.7247 1.35986 27.9902L1.35986 25.3302C1.35986 23.5665 2.06099 21.8755 3.3081 20.6284C4.55523 19.3814 6.24618 18.6802 8.00986 18.6802L15.9899 18.6802L16.3197 18.688C17.9633 18.7696 19.5225 19.4593 20.6917 20.6284C21.9387 21.8755 22.6399 23.5665 22.6399 25.3302L22.6399 27.9902C22.6399 28.7247 22.0444 29.3202 21.3099 29.3202C20.5753 29.3202 19.9799 28.7247 19.9799 27.9902Z" fill="#12BA09"/>
<path d="M23.9898 9.33022C23.9898 8.44645 23.6966 7.58742 23.1559 6.88844C22.6825 6.27664 22.0426 5.81739 21.3167 5.56362L21.0011 5.46752L20.8713 5.42725C20.2392 5.19303 19.875 4.51319 20.0478 3.84658C20.2207 3.18014 20.8688 2.76376 21.535 2.86596L21.6688 2.89324L21.9337 2.96726C23.251 3.36758 24.4134 4.1686 25.2587 5.261C26.1602 6.42605 26.6498 7.85712 26.6498 9.33022C26.6498 10.8033 26.1602 12.2344 25.2587 13.3995C24.3571 14.5645 23.0948 15.3976 21.6688 15.7672C20.9578 15.9515 20.2323 15.5247 20.0478 14.8138C19.8634 14.103 20.2902 13.3773 21.0011 13.1929C21.8567 12.9711 22.6149 12.4711 23.1559 11.772C23.6968 11.073 23.9898 10.214 23.9898 9.33022Z" fill="#12BA09"/>
<path d="M27.9946 28.0003L27.9946 25.3416L27.9804 25.0118C27.9163 24.2454 27.6322 23.5113 27.1582 22.8999C26.6842 22.2883 26.0441 21.8295 25.3177 21.5764L25.0021 21.4802L24.8722 21.4399C24.2399 21.2064 23.8754 20.5273 24.0475 19.8606C24.2197 19.1941 24.8671 18.776 25.5333 18.8774L25.6671 18.9059L25.9321 18.98C27.25 19.3791 28.4146 20.1779 29.2609 21.2698C30.1636 22.4342 30.6534 23.8657 30.6546 25.3391L30.6546 28.0003C30.6545 28.7349 30.0591 29.3303 29.3246 29.3303C28.5902 29.3303 27.9948 28.7349 27.9946 28.0003Z" fill="#12BA09"/>
<path d="M15.9901 9.33018C15.9901 7.12657 14.2038 5.34018 12.0001 5.34018C9.79649 5.34018 8.0101 7.12657 8.0101 9.33018C8.0101 11.5338 9.79649 13.3202 12.0001 13.3202C14.2038 13.3202 15.9901 11.5338 15.9901 9.33018ZM18.6501 9.33018C18.6501 13.0029 15.6728 15.9802 12.0001 15.9802C8.32741 15.9802 5.3501 13.0029 5.3501 9.33018C5.3501 5.65749 8.32741 2.68018 12.0001 2.68018C15.6728 2.68018 18.6501 5.65749 18.6501 9.33018Z" fill="#12BA09"/>
</svg>
