<svg width="40" height="40" viewBox="0 0 40 40" fill="none" xmlns="http://www.w3.org/2000/svg">
<path d="M16.6798 8.32982C16.6798 7.40752 15.9321 6.65982 15.0098 6.65982L8.32982 6.65982C7.40752 6.65982 6.65982 7.40752 6.65982 8.32982L6.65982 15.0098C6.65982 15.9321 7.40752 16.6798 8.32982 16.6798L15.0098 16.6798C15.9321 16.6798 16.6798 15.9321 16.6798 15.0098L16.6798 8.32982ZM20.0198 15.0098C20.0198 17.7768 17.7768 20.0198 15.0098 20.0198L8.32982 20.0198C5.56288 20.0198 3.31982 17.7768 3.31982 15.0098L3.31982 8.32982C3.31982 5.56288 5.56288 3.31982 8.32982 3.31982L15.0098 3.31982C17.7768 3.31982 20.0198 5.56288 20.0198 8.32982L20.0198 15.0098Z" fill="#12BA09"/>
<path d="M9.98975 24.9999L9.98975 18.3199C9.98975 17.3976 10.7374 16.6499 11.6597 16.6499C12.5821 16.6499 13.3297 17.3976 13.3297 18.3199L13.3297 24.9999L13.3379 25.1646C13.3758 25.547 13.5449 25.9065 13.819 26.1806C14.1322 26.4939 14.5568 26.6699 14.9997 26.6699L21.6797 26.6699C22.6021 26.6699 23.3497 27.4176 23.3497 28.3399C23.3497 29.2622 22.6021 30.0099 21.6797 30.0099L14.9997 30.0099C13.671 30.0099 12.3971 29.4817 11.4575 28.5421C10.6356 27.7202 10.1282 26.6423 10.0142 25.4957L9.98975 24.9999Z" fill="#12BA09"/>
<path d="M33.34 24.99C33.34 24.0676 32.5923 23.32 31.67 23.32L24.99 23.32C24.0676 23.32 23.32 24.0676 23.32 24.99L23.32 31.67C23.32 32.5923 24.0676 33.34 24.99 33.34H31.67C32.5923 33.34 33.34 32.5923 33.34 31.67V24.99ZM36.68 31.67C36.68 34.437 34.437 36.68 31.67 36.68H24.99C22.223 36.68 19.98 34.437 19.98 31.67L19.98 24.99C19.98 22.223 22.223 19.98 24.99 19.98L31.67 19.98C34.437 19.98 36.68 22.223 36.68 24.99V31.67Z" fill="#12BA09"/>
</svg>
